name GIL01_free4Moments.mot
datacolumns 7
datarows 74
range 0.14166667 0.75000000
endheader

                time	          RHipMoment	          LHipMoment	         RKneeMoment	         LKneeMoment	        RAnkleMoment	        LAnkleMoment	
          0.14166667	        -49.48162842	        306.89804077	        -24.00275803	        322.68835449	        -24.41931534	       -202.60900879	
          0.14999999	        -49.03946304	        336.45507813	        -27.77687645	        311.10568237	        -28.35610199	       -204.40826416	
          0.15833333	        -65.73701477	        341.60256958	        -21.68499565	        307.41625977	        -31.09774971	       -201.72387695	
          0.16666666	        -86.91529846	        315.52578735	         -9.53484440	        313.66842651	        -31.99646378	       -195.69338989	
          0.17500000	       -108.53854370	        275.89953613	          6.76865101	        317.72033691	        -30.91463089	       -185.19818115	
          0.18333332	       -124.55134583	        227.88722229	         24.38693047	        318.91546631	        -28.02817917	       -172.30738831	
          0.19166666	       -124.60946655	        175.65658569	         37.82289505	        319.81268311	        -23.76826477	       -159.08996582	
          0.19999999	       -110.43775940	        131.69448853	         44.61664963	        314.14202881	        -18.96137428	       -146.03729248	
          0.20833333	        -96.71384430	        101.20088959	         47.52577591	        301.09631348	        -14.43787098	       -134.77191162	
          0.21666667	        -91.53539276	         84.46840668	         48.16616058	        282.88424683	        -10.84342861	       -125.77130890	
          0.22499999	        -86.31911469	         80.23237610	         44.55587387	        262.09750366	         -8.59270096	       -118.07907867	
          0.23333332	        -77.52164459	         76.85507965	         37.17732620	        242.89326477	         -7.73869896	       -111.13371277	
          0.24166666	        -69.05471802	         73.77107239	         29.62296104	        227.40425110	         -8.03990650	       -103.83229065	
          0.25000000	        -61.74956894	         71.17175293	         24.14863396	        216.33093262	         -9.01990414	        -95.53016663	
          0.25833333	        -59.85025787	         66.48421478	         21.10515785	        208.76469421	        -10.14107704	        -85.24571228	
          0.26666665	        -64.48126221	         57.41229630	         19.00519753	        203.42739868	        -11.00785923	        -75.22737885	
          0.27499998	        -70.49974060	         52.69742966	         16.43386841	        194.84870911	        -11.37212849	        -62.78361893	
          0.28333333	        -73.85163879	         49.18424988	         12.94075012	        185.48066711	        -11.13418770	        -50.10744095	
          0.29166666	        -75.38066864	         48.30482101	          8.91786957	        173.90333557	        -10.41159630	        -36.60595703	
          0.30000001	        -79.66135406	         40.50185013	          5.19737101	        162.36547852	         -9.50437737	        -22.53657722	
          0.30833334	        -88.68614197	         24.95922852	          3.07213926	        151.48612976	         -8.70145416	         -6.80091715	
          0.31666666	        -93.47681427	         10.34684849	          2.12382841	        140.41484070	         -8.14289188	         11.55826092	
          0.32499999	        -90.01937103	         -0.98585373	          0.82342172	        129.39013672	         -7.91877699	         32.71255493	
          0.33333331	        -86.72383118	        -16.84482765	         -1.28941858	        119.02204132	         -8.12599182	         54.58697510	
          0.34166664	        -90.98300171	        -39.35899353	         -3.50711870	        106.94769287	         -8.76520443	         78.04536438	
          0.34999999	        -96.93614197	        -65.11530304	         -5.25979042	         92.64153290	         -9.74977970	        101.68048096	
          0.35833332	        -96.20964813	        -78.90206909	         -7.14700317	         72.62628937	        -10.84701538	        125.13263702	
          0.36666667	        -98.48174286	        -87.75198364	         -8.55451393	         49.78029633	        -12.10976982	        150.80482483	
          0.37500000	       -110.55690002	       -101.45217133	         -9.04239941	         27.38259315	        -13.24663830	        179.52853394	
          0.38333333	       -114.73310852	       -124.78947449	        -10.58835602	          8.02237129	        -13.36034679	        210.85787964	
          0.39166665	       -120.44228363	       -151.74327087	         -9.08890724	         -7.90242338	        -13.97033596	        244.25099182	
          0.40000001	       -157.58383179	       -167.21556091	         10.47444534	        -24.61790848	        -14.69705296	        279.39172363	
          0.40833333	       -183.18965149	       -168.49423218	         26.12657166	        -46.12233734	        -15.58323479	        317.19940186	
          0.41666666	        -53.93226242	       -168.03465271	        -22.04503059	        -68.38092804	        -16.49726677	        356.82958984	
          0.42499998	          6.38751888	       -164.69183350	        -42.53179169	        -91.13698578	        -17.43973732	        398.80123901	
          0.43333334	         43.64017105	       -166.81523132	        -52.28179169	       -110.00019836	        -18.24811554	        441.93075562	
          0.44166666	         46.34989929	       -178.03884888	        -53.18354416	       -125.04181671	        -19.04986382	        488.05508423	
          0.44999999	         91.43088531	       -204.56193542	        -72.36756897	       -132.13941956	        -18.39168167	        534.48883057	
          0.45833331	        100.46549225	       -238.46478271	        -78.85431671	       -135.43685913	        -17.40475464	        582.68902588	
          0.46666667	         76.83946228	       -273.19924927	        -68.67615509	       -135.28802490	        -16.02786636	        629.10699463	
          0.47499999	        -19.85456467	       -296.44454956	        -25.24406624	       -137.41705322	        -13.76875782	        674.59613037	
          0.48333332	         58.50637817	       -315.18646240	        -55.01843643	       -140.94927979	        -12.28709030	        717.62487793	
          0.49166664	        124.72197723	       -336.33615112	        -87.84160614	       -142.87385559	        -10.61790466	        757.81604004	
          0.50000000	        143.77360535	       -364.29641724	       -104.46782684	       -141.37091064	         -8.32361412	        795.06079102	
          0.50833333	        156.20396423	       -395.71176147	       -124.80588531	       -138.79618835	         -6.03974724	        829.99090576	
          0.51666665	        174.59951782	       -426.31845093	       -149.63383484	       -133.87797546	         -3.61006665	        860.73809814	
          0.52499998	        178.69297791	       -447.20074463	       -172.43757629	       -132.70123291	         -1.06964016	        888.83148193	
          0.53333330	        173.06874084	       -470.33901978	       -189.11163330	       -127.99240875	          1.26217520	        912.10723877	
          0.54166663	        173.20037842	       -489.38604736	       -197.88906860	       -117.71965027	          2.95719719	        931.76934814	
          0.54999995	        184.78974915	       -506.81698608	       -198.31170654	       -107.30636597	          3.87903786	        948.32287598	
          0.55833334	        191.26684570	       -526.73822021	       -189.01881409	        -93.37202454	          4.04310656	        962.48913574	
          0.56666666	        161.75944519	       -548.12854004	       -156.41777039	        -77.07006073	          3.61433482	        972.52496338	
          0.57499999	         53.31937790	       -572.40234375	        -86.96192169	        -56.66173172	          2.09194589	        977.48248291	
          0.58333331	        -46.32704926	       -588.26623535	        -22.19582748	        -36.87701797	         -1.09394240	        976.97570801	
          0.59166670	        -31.19485664	       -587.82220459	        -21.71771622	        -20.07975197	        -12.40051460	        971.54187012	
          0.60000002	        908.56616211	       -582.86407471	       -456.51556396	         -2.99886465	       -103.00489044	        958.85333252	
          0.60833335	        632.90100098	       -576.24768066	       -307.07882690	         15.23549557	       -133.84410095	        936.39117432	
          0.61666667	        197.97059631	       -570.86169434	        -54.45917892	         35.45065308	       -181.08955383	        900.92736816	
          0.62500000	        -10.49844837	       -558.96862793	        119.21328735	         53.64434814	       -240.42900085	        857.51708984	
          0.63333333	        316.57379150	       -544.57238770	         16.18367386	         72.03156281	       -239.89424133	        806.67437744	
          0.64166665	        689.89782715	       -527.02917480	       -107.42131042	         87.54124451	       -236.61061096	        747.24108887	
          0.64999998	        656.17456055	       -499.14855957	        -29.57254410	         97.02487946	       -250.23480225	        680.52294922	
          0.65833330	        509.10342407	       -468.59704590	         95.04139709	        106.98390198	       -260.64059448	        607.47833252	
          0.66666669	        508.95040894	       -421.66448975	        131.71879578	        109.42200470	       -249.51245117	        527.84643555	
          0.67500001	        488.22058105	       -365.54382324	        174.93316650	        106.26084137	       -234.82153320	        442.15270996	
          0.68333334	        343.10968018	       -306.06323242	        264.39935303	         97.92637634	       -207.92958069	        349.99423218	
          0.69166666	        304.51904297	       -237.45684814	        312.27917480	         78.82181549	       -175.37779236	        256.20150757	
          0.69999999	        302.19973755	       -176.30284119	        361.78851318	         57.97846603	       -150.46626282	        164.92118835	
          0.70833331	        312.49310303	       -164.42469788	        411.97009277	         54.35295105	       -132.29580688	         85.13599396	
          0.71666664	        378.67105103	       -202.09858704	        431.54531860	         71.06105804	       -121.04905701	         26.80730438	
          0.72499996	        415.62124634	       -218.80845642	        451.00033569	         73.55656433	       -113.07781219	         -1.30810022	
          0.73333335	        428.65554810	       -195.87463379	        465.73718262	         61.30297470	       -105.83187866	        -12.65276718	
          0.74166667	        426.81817627	       -157.71165466	        468.21762085	         42.29851913	        -95.46286774	        -19.76285362	
          0.75000000	        379.39666748	       -124.74160767	        477.82623291	         24.20354652	        -81.54406738	        -24.41551781	
